<svg xmlns="http://www.w3.org/2000/svg" viewBox="0 0 512 512">
  <defs>
    <linearGradient id="bg" x1="0" y1="0" x2="1" y2="1">
      <stop offset="0%" stop-color="#007AFF"/>
      <stop offset="100%" stop-color="#5856D6"/>
    </linearGradient>
  </defs>
  <rect width="512" height="512" rx="110" fill="url(#bg)"/>
  <path d="M256 100 C200 100,130 140,125 230 C120 320,160 410,256 410 C352 410,392 320,387 230 C382 140,312 100,256 100Z" fill="white" opacity="0.95"/>
  <path d="M175 175 L155 110 L200 160Z" fill="white" opacity="0.95"/>
  <path d="M337 175 L357 110 L312 160Z" fill="white" opacity="0.95"/>
  <circle cx="210" cy="255" r="42" fill="#007AFF" opacity="0.15"/>
  <circle cx="210" cy="255" r="28" fill="#1D1D1F"/>
  <circle cx="200" cy="245" r="8" fill="white"/>
  <circle cx="302" cy="255" r="42" fill="#5856D6" opacity="0.15"/>
  <circle cx="302" cy="255" r="28" fill="#1D1D1F"/>
  <circle cx="292" cy="245" r="8" fill="white"/>
  <path d="M248 295 L256 312 L264 295Z" fill="#FF9500" opacity="0.8"/>
</svg>
